<svg width="40" height="41" viewBox="0 0 40 41" fill="none" xmlns="http://www.w3.org/2000/svg">
<rect width="40" height="40" transform="translate(0 0.55957)" fill="#381E72" fill-opacity="0.08"/>
<path d="M27.43 21.5396C27.47 21.2196 27.5 20.8996 27.5 20.5596C27.5 20.2196 27.47 19.8996 27.43 19.5796L29.54 17.9296C29.73 17.7796 29.78 17.5096 29.66 17.2896L27.66 13.8296C27.54 13.6096 27.27 13.5296 27.05 13.6096L24.56 14.6096C24.04 14.2096 23.48 13.8796 22.87 13.6296L22.49 10.9796C22.46 10.7396 22.25 10.5596 22 10.5596H18C17.75 10.5596 17.54 10.7396 17.51 10.9796L17.13 13.6296C16.52 13.8796 15.96 14.2196 15.44 14.6096L12.95 13.6096C12.72 13.5196 12.46 13.6096 12.34 13.8296L10.34 17.2896C10.21 17.5096 10.27 17.7796 10.46 17.9296L12.57 19.5796C12.53 19.8996 12.5 20.2296 12.5 20.5596C12.5 20.8896 12.53 21.2196 12.57 21.5396L10.46 23.1896C10.27 23.3396 10.22 23.6096 10.34 23.8296L12.34 27.2896C12.46 27.5096 12.73 27.5896 12.95 27.5096L15.44 26.5096C15.96 26.9096 16.52 27.2396 17.13 27.4896L17.51 30.1396C17.54 30.3796 17.75 30.5596 18 30.5596H22C22.25 30.5596 22.46 30.3796 22.49 30.1396L22.87 27.4896C23.48 27.2396 24.04 26.8996 24.56 26.5096L27.05 27.5096C27.28 27.5996 27.54 27.5096 27.66 27.2896L29.66 23.8296C29.78 23.6096 29.73 23.3396 29.54 23.1896L27.43 21.5396ZM20 24.0596C18.07 24.0596 16.5 22.4896 16.5 20.5596C16.5 18.6296 18.07 17.0596 20 17.0596C21.93 17.0596 23.5 18.6296 23.5 20.5596C23.5 22.4896 21.93 24.0596 20 24.0596Z" fill="#381E72"/>
</svg>
